<svg xmlns="http://www.w3.org/2000/svg" viewBox="0 0 38.728 30.618">
	<g>
		<path d="M38.728 30.618H0V0h38.728v30.618zM1.348 29.27H37.38V1.347H1.348V29.27z"></path>
		<path d="M.298 7.135h38.13V8.48H.3zM5.843 6.228c-1.103 0-2-.896-2-2s.897-2 2-2 2 .897 2 2-.898 2-2 2zm0-2.652c-.36 0-.652.293-.652.652s.294.652.653.652.652-.293.652-.652-.293-.652-.652-.652zM15.542 3.157h3.79v1.347h-3.79zM23.5 3.157h3.79v1.347H23.5zM31.458 3.157h3.79v1.347h-3.79zM18.182 25.846H3.844V11.51h14.338v14.336zM5.19 24.5h11.645V12.854H5.19V24.5zM21.375 12.57h12.75v1.346h-12.75zM21.375 15.883h12.75v1.347h-12.75zM21.375 19.197h12.75v1.346h-12.75zM21.375 22.51h12.75v1.348h-12.75z"></path>
	</g>
</svg>
