<svg xmlns="http://www.w3.org/2000/svg" viewBox="0 0 35.433 40.139">
	<g>
		<path d="M6.16 28.56C2.765 28.56 0 25.797 0 22.4c0-3.397 2.764-6.16 6.16-6.16 3.397 0 6.16 2.763 6.16 6.16.002 3.397-2.762 6.16-6.16 6.16zm0-10.82c-2.568 0-4.66 2.09-4.66 4.66 0 2.57 2.092 4.66 4.66 4.66 2.57 0 4.662-2.09 4.662-4.66 0-2.57-2.09-4.66-4.66-4.66zM30.145 39.713c-2.28 0-4.133-1.854-4.133-4.133s1.854-4.133 4.133-4.133S34.28 33.3 34.28 35.58s-1.856 4.133-4.135 4.133zm0-6.766c-1.452 0-2.633 1.18-2.633 2.633s1.18 2.633 2.633 2.633 2.634-1.18 2.634-2.633-1.183-2.633-2.635-2.633z"></path>
		<path d="M8.362 17.647c-.04 0-.08-.004-.12-.01-.41-.066-.688-.45-.62-.86.02-.14 2.426-14.16 15.592-13.527.11 0 11.353.187 12.218 12.3.03.414-.28.773-.694.803-.41.038-.772-.28-.802-.694-.77-10.76-10.352-10.91-10.76-10.91-.252-.013-.502-.018-.745-.018-11.197 0-13.245 11.773-13.33 12.285-.06.37-.377.63-.738.63z"></path>
		<path d="M3.154 18.26H3.14c-.413-.01-.743-.35-.736-.763C2.407 17.322 2.867.04 18.784 0c.392-.01 10.37-.037 13.648 7.593.163.38-.013.82-.394.985-.38.163-.82-.012-.985-.394C28.165 1.462 18.9 1.49 18.793 1.5 12.745 1.514 8.41 4.18 5.905 9.424c-1.908 3.99-2 8.057-2 8.098-.008.41-.343.737-.75.737zM19.22 40.14C8.792 39.38 5.706 28.317 5.676 28.206c-.107-.4.13-.81.53-.918.4-.106.81.128.92.527.11.414 2.85 10.146 12.146 10.824-.014 0 4.147-.023 7.235-1.66.37-.19.82-.054 1.015.312.193.366.054.82-.312 1.015-3.418 1.81-7.798 1.832-7.99 1.832z"></path>
	</g>
</svg>
