<svg xmlns="http://www.w3.org/2000/svg" viewBox="0 0 39.917 39.527">
	<g>
		<path d="M9.624 35.982c-.596 0-1.164-.226-1.6-.635-.473-.44-.733-1.04-.733-1.692v-6.567C2.32 24.038 0 20.358 0 15.53 0 6.678 8.173 0 19.01 0c9.88 0 17.81 5.73 18.88 13.637.044.158.066.322.066.487 0 .988-.804 1.792-1.79 1.792-.434 0-.835-.143-1.154-.403-2.052-1.672-4.895-2.556-8.222-2.556-6.716 0-11.78 4.666-11.78 10.854 0 1.965.483 3.778 1.437 5.39.454.766.272 1.76-.423 2.312l-4.946 3.957c-.42.334-.924.512-1.454.512zM19.01 1.5C9.027 1.5 1.5 7.53 1.5 15.53c0 4.362 2.2 7.694 6.923 10.488l.368.218v7.42c0 .233.09.44.258.596.3.282.77.305 1.092.046l4.948-3.958c.113-.09.142-.25.067-.375-1.092-1.847-1.646-3.917-1.646-6.153 0-7.043 5.708-12.354 13.28-12.354 3.675 0 6.846 1 9.168 2.894.193.155.497-.008.497-.227 0-.034-.006-.07-.016-.102l-.03-.132C35.47 6.71 28.15 1.5 19.01 1.5z"></path>
		<path d="M33.025 39.528c-.458 0-.91-.135-1.308-.39-.037-.02-.094-.062-.145-.103l-3.45-2.83c-.456.05-.91.076-1.382.076-4.94 0-9.253-2.32-11.538-6.212-1.088-1.837-1.663-3.98-1.663-6.2 0-7.075 5.674-12.41 13.2-12.41 3.574 0 6.688.998 9.005 2.89 2.73 2.21 4.17 5.502 4.17 9.52 0 4.522-1.725 6.855-4.348 8.86v3.886c.016.844-.275 1.62-.817 2.175-.47.476-1.08.738-1.725.738zm-4.454-4.895l3.94 3.232c.41.264.855.194 1.17-.127.258-.264.396-.658.388-1.11v-4.653l.305-.225c2.562-1.89 4.044-3.784 4.044-7.88 0-3.553-1.25-6.442-3.616-8.36-2.048-1.67-4.834-2.553-8.06-2.553-6.67 0-11.7 4.69-11.7 10.912 0 1.948.503 3.83 1.455 5.437 2.014 3.43 5.844 5.475 10.246 5.475.516 0 1.008-.034 1.506-.104l.325-.045z"></path>
		<circle cx="33.04" cy="24.067" r="1.425"></circle>
		<circle cx="27.345" cy="24.067" r="1.425"></circle>
		<circle cx="21.651" cy="24.067" r="1.425"></circle>
	</g>
</svg>
