<svg xmlns="http://www.w3.org/2000/svg" viewBox="0 0 42.364 29.448">
	<g>
		<path d="M39.98 29.45H2.384C1.07 29.45 0 28.38 0 27.064V2.383C0 1.07 1.07 0 2.383 0H39.98c1.315 0 2.385 1.07 2.385 2.384v24.682c0 1.314-1.07 2.383-2.384 2.383zM2.384 1.5c-.486 0-.883.396-.883.883v24.682c0 .487.396.884.883.884H39.98c.488 0 .885-.397.885-.885V2.383c0-.487-.396-.884-.884-.884H2.384z"></path>
		<path d="M21.117 17.396c-.16 0-.318-.05-.45-.15L.686 2.173c-.33-.25-.397-.72-.147-1.05.248-.332.72-.4 1.05-.147l19.524 14.727L40.284.98c.33-.253.8-.19 1.053.14s.19.8-.138 1.05L21.573 17.24c-.134.104-.295.156-.457.156zM1.14 28.597c-.224 0-.443-.1-.592-.286-.256-.325-.2-.797.126-1.053l14.253-11.2c.326-.257.798-.2 1.054.125.257.326.2.798-.125 1.054l-14.253 11.2c-.138.11-.3.16-.463.16zM41.244 28.597c-.158 0-.32-.05-.455-.154l-14.633-11.2c-.33-.253-.392-.724-.14-1.053.25-.326.723-.39 1.052-.14L41.7 27.25c.33.253.392.724.14 1.053-.148.193-.372.294-.598.294z"></path>
	</g>
</svg>
