<svg xmlns="http://www.w3.org/2000/svg" viewBox="0 0 37.379 37.379">
	<g>
		<path d="M25.45 37.187c-.415 0-.75-.336-.75-.75V23.44c0-.415.335-.75.75-.75h5.304v-4.555h-5.297c-.414 0-.75-.336-.75-.75v-4.032c0-1.473 1.724-2.766 2.766-2.766h3.28V6.033h-3.16c-3.968 0-7.448 3.42-7.448 7.32v4.03c0 .415-.336.75-.75.75h-5.297v4.555h5.297c.414 0 .75.336.75.75v12.998c0 .414-.336.75-.75.75s-.75-.336-.75-.75V24.19h-5.297c-.414 0-.75-.337-.75-.75v-6.055c0-.414.336-.75.75-.75h5.297v-3.282c0-4.698 4.182-8.82 8.948-8.82h3.91c.415 0 .75.337.75.75v6.055c0 .414-.335.75-.75.75h-4.03c-.32.028-1.266.697-1.266 1.266v3.282h5.297c.414 0 .75.336.75.75v6.054c0 .414-.336.75-.75.75H26.2v12.248c0 .413-.337.75-.75.75z"></path>
		<path d="M30.775 37.38h-5.288c-.414 0-.75-.337-.75-.75s.336-.75.75-.75h5.288c2.814 0 5.104-2.29 5.104-5.105V6.605c0-2.815-2.29-5.105-5.105-5.105H6.605C3.788 1.5 1.5 3.79 1.5 6.604v24.17c0 2.815 2.29 5.105 5.104 5.105h12.723c.414 0 .75.335.75.75s-.336.75-.75.75H6.604C2.962 37.38 0 34.415 0 30.774V6.605C0 2.96 2.962 0 6.604 0h24.17c3.643 0 6.605 2.962 6.605 6.604v24.17c0 3.642-2.964 6.605-6.605 6.605z"></path>
	</g>
</svg>
