<svg xmlns="http://www.w3.org/2000/svg" viewBox="0 0 60.504 60.523">
	<style>
		#Icon {
			fill: #32CBC8 !important
		}
	</style>
	<path d="M31.442 60.004V38.98h9.917V30.25H31.44v-6.15c0-1.982 1.19-3.768 2.578-3.768h7.537v-8.727H34.02c-6.15 0-11.107 5.554-11.107 12.496v6.15h-7.537v8.726h7.537V59.01C10.02 55.84.5 44.136.5 30.252.5 13.79 13.79.5 30.252.5s29.752 13.29 29.752 29.752c0 16.066-12.694 29.157-28.562 29.752z"></path>
	<path id="Icon" fill="#32CBC8" d="M30.942 60.523V38.48h9.917v-7.73H30.94v-6.647c0-2.313 1.41-4.27 3.078-4.27h7.037v-7.727H34.02c-5.85 0-10.607 5.382-10.607 11.996v6.648h-7.537v7.728h7.537V59.65l-.62-.152C9.374 56.194 0 44.168 0 30.252 0 13.572 13.57 0 30.252 0s30.252 13.57 30.252 30.252c0 16.354-12.757 29.642-29.043 30.252l-.518.02zm1-21.044v20c15.498-.85 27.562-13.59 27.562-29.23C59.504 14.123 46.382 1 30.252 1S1 14.122 1 30.252c0 13.24 8.772 24.71 21.413 28.115V39.48h-7.537v-9.73h7.537v-5.647c0-7.166 5.207-12.996 11.607-12.996h8.037v9.728H34.02c-1.088 0-2.078 1.558-2.078 3.27v5.647h9.917v9.728H31.94z"></path>
</svg>
