<svg xmlns="http://www.w3.org/2000/svg" viewBox="0 0 24.923 31.332">
	<path d="M3.916 0C1.816 0 0 1.816 0 3.916v24.21c0 1.78 1.424 3.205 3.204 3.205H24.21c.356 0 .712-.355.712-.71V7.12c0-.392-.285-.712-.712-.712-1.246 0-2.492-1.246-2.492-2.492s1.246-2.492 2.492-2.492c.392 0 .712-.32.712-.712 0-.392-.32-.712-.712-.712H3.916zm0 1.424H21.22c-.57.676-.926 1.567-.926 2.492 0 .926.356 1.816.926 2.492H3.916c-1.246 0-2.492-1.246-2.492-2.492S2.67 1.424 3.916 1.424zM1.424 6.872c.676.57 1.567.926 2.492.926h19.582v22.075H3.204c-.997 0-1.78-.783-1.78-1.78V6.873zm4.273 5.59c-.392 0-.712.32-.712.712 0 .392.32.712.712.712h13.53c.392 0 .712-.32.712-.712 0-.392-.32-.712-.713-.712H5.697zm0 5.696c-.392 0-.712.32-.712.712 0 .392.32.712.712.712h13.53c.392 0 .712-.32.712-.712 0-.392-.32-.712-.713-.712H5.697zm0 5.697c-.392 0-.712.32-.712.712 0 .392.32.712.712.712h13.53c.392 0 .712-.32.712-.713 0-.392-.32-.712-.713-.712H5.697z"></path>
</svg>
