<svg xmlns="http://www.w3.org/2000/svg" viewBox="0 0 34.17 33.985">
	<g>
		<path d="M17.13 26.343c-5.18 0-9.396-4.215-9.396-9.396S11.95 7.55 17.13 7.55c5.178 0 9.305 4.122 9.396 9.384 0 5.194-4.215 9.41-9.396 9.41zm0-17.29c-4.354 0-7.896 3.54-7.896 7.895s3.542 7.896 7.896 7.896 7.896-3.542 7.896-7.896c-.076-4.423-3.544-7.896-7.896-7.896z"></path>
		<circle cx="27.5" cy="6.305" r="1.458"></circle>
		<path d="M17.038 33.984c-5.043 0-5.57 0-7.623-.093-1.94-.092-3.122-.448-4.023-.786-1.125-.41-1.953-.933-2.766-1.746-.814-.812-1.337-1.642-1.748-2.77-.27-.725-.686-1.828-.785-4.02C0 22.61 0 21.966 0 16.947c0-5.043 0-5.57.093-7.623C.186 7.377.543 6.197.88 5.3 1.433 4.08 1.96 3.293 2.72 2.532 3.534 1.718 4.364 1.195 5.49.785 6.4.445 7.6.093 9.542.093 11.468 0 12.112 0 17.132 0c5.042 0 5.568 0 7.622.094 1.94.093 3.122.45 4.023.787 1.122.41 1.95.932 2.766 1.746.812.812 1.336 1.64 1.75 2.772.27.725.684 1.828.783 4.018.093 1.96.093 2.604.093 7.623l-.038 2.004c-.058 3.142-.07 3.795-.148 5.525-.093 1.94-.45 3.12-.787 4.022-.408 1.122-.93 1.95-1.745 2.766-.812.812-1.64 1.336-2.772 1.75-.725.27-1.828.684-4.018.783-1.96.094-2.605.094-7.624.094zM17.13 1.5c-4.986 0-5.627 0-7.552.092-1.966 0-3.008.39-3.568.6-.928.338-1.572.743-2.23 1.402-.632.63-1.056 1.27-1.514 2.278-.292.783-.592 1.79-.675 3.52-.09 2.018-.09 2.542-.09 7.554 0 4.987 0 5.628.09 7.554.09 1.955.44 2.887.695 3.566.338.93.743 1.574 1.4 2.23.658.658 1.303 1.064 2.226 1.4.84.314 1.848.613 3.575.696 2.017.09 2.54.09 7.553.09 4.987 0 5.628 0 7.554-.09 1.954-.09 2.886-.438 3.567-.693.93-.34 1.574-.746 2.23-1.403.658-.658 1.063-1.303 1.398-2.225.314-.84.613-1.847.696-3.574.078-1.708.09-2.36.146-5.482l.037-1.99c0-4.975 0-5.615-.09-7.54-.09-1.955-.44-2.887-.694-3.568-.34-.93-.745-1.575-1.402-2.23-.657-.66-1.302-1.064-2.224-1.4-.84-.313-1.847-.612-3.574-.695-2.015-.093-2.54-.093-7.55-.093z"></path>
	</g>
</svg>
