<svg xmlns="http://www.w3.org/2000/svg" viewBox="0 0 60.503 60.504">
	<style>
		#Icon {
			fill: #32CBC8 !important
		}
	</style>
	<path d="M60.003 30.252c0 16.463-13.29 29.752-29.752 29.752S.5 46.714.5 30.252 13.79.5 30.25.5s29.753 13.29 29.753 29.752zm-37.09-14.28c0-2.38-1.983-4.365-4.96-4.365s-4.958 1.785-4.958 4.364c0 2.38 1.983 4.365 4.96 4.365s4.958-1.983 4.958-4.364zm-1.39 8.132h-7.338V45.13h7.537V24.103h-.198zm27.373 9.917c0-6.743-3.372-11.106-8.727-11.106-2.976 0-5.158 1.785-6.15 4.562l-.198-3.174h-7.537c0 .793.198 4.96.198 4.96v16.065h7.537V34.22c0-2.976 1.388-4.96 3.57-4.96s3.77 1.19 3.77 4.96v11.106h7.536V34.02z"></path>
	<path id="Icon" fill="#32CBC8" d="M30.25 60.504C13.57 60.504 0 46.934 0 30.252S13.57 0 30.25 0s30.253 13.57 30.253 30.252-13.57 30.252-30.252 30.252zM30.25 1C14.123 1 1 14.122 1 30.252s13.122 29.252 29.25 29.252c16.13 0 29.253-13.122 29.253-29.252S46.38 1 30.25 1zm19.146 44.826H40.86V34.22c0-3.997-1.866-4.46-3.27-4.46-1.865 0-3.07 1.75-3.07 4.46v11.606h-8.537V29.26c-.008-.145-.198-4.16-.198-4.958v-.5h8.507l.11 1.75c1.286-2.017 3.312-3.14 5.768-3.14 5.604 0 9.227 4.558 9.227 11.608v11.806zm-7.538-1h6.537V34.02c0-6.542-3.152-10.606-8.227-10.606-2.648 0-4.718 1.542-5.68 4.23l-.817 2.29-.32-5.132h-6.556c.04 1.345.186 4.4.187 4.436l.002 15.59h6.537v-10.61c0-3.264 1.635-5.457 4.07-5.457 2.83 0 4.268 1.837 4.268 5.46v10.606zm-19.635.802h-8.537V23.604h8.537v22.024zm-7.537-1h6.537V24.604h-6.537v20.024zm3.268-23.793c-3.112 0-5.46-2.09-5.46-4.863 0-2.864 2.246-4.864 5.46-4.864 3.112 0 5.46 2.09 5.46 4.864 0 2.772-2.348 4.863-5.46 4.863zm0-8.728c-2.667 0-4.46 1.553-4.46 3.864 0 2.24 1.876 3.864 4.46 3.864s4.46-1.625 4.46-3.863-1.876-3.863-4.46-3.863z"></path>
</svg>
