<svg xmlns="http://www.w3.org/2000/svg" viewBox="0 0 32.068 33.66">
	<g>
		<path d="M27.687 8.992H6.082l12.43-7.814s.442-.366.13-.866c-.32-.513-.768-.24-.768-.24L3.36 9.118v.002C1.446 9.588 0 11.332 0 13.415v15.82c0 2.468 2 4.424 4.423 4.424h23.22c2.468 0 4.424-2 4.424-4.424v-15.82c.043-2.425-1.956-4.424-4.38-4.424zm3.147 20.245c0 1.744-1.403 3.147-3.147 3.147H4.467c-1.745 0-3.148-1.403-3.148-3.147V13.415c0-1.744 1.402-3.147 3.146-3.147h23.22c1.745 0 3.148 1.403 3.148 3.147v15.822z"></path>
		<path d="M12.887 14.82c-3.573 0-6.507 2.934-6.507 6.506s2.935 6.507 6.507 6.507 6.507-2.935 6.507-6.507-2.935-6.507-6.507-6.507zm0 11.737c-2.892 0-5.23-2.34-5.23-5.23s2.338-5.232 5.23-5.232 5.23 2.34 5.23 5.23-2.338 5.232-5.23 5.232zM24.157 15.457h3.785v1.276h-3.785zM24.157 18.05h3.785v1.277h-3.785z"></path>
	</g>
</svg>
