<svg xmlns="http://www.w3.org/2000/svg" viewBox="0 0 60.504 60.504">
				<style>
					#Icon {
						fill: #32CBC8 !important
					}
				</style>
				<path d="M60.004 30.252c0 16.463-13.29 29.752-29.752 29.752S.5 46.714.5 30.252 13.79.5 30.252.5s29.752 13.29 29.752 29.752zm-7.34-10.91c-1.586.596-3.173 1.19-4.958 1.39 1.785-.993 2.975-2.778 3.57-4.76-1.587.99-3.372 1.586-5.355 1.982-1.586-1.587-3.768-2.777-6.148-2.777-4.76 0-8.33 3.77-8.33 8.53 0 .594 0 1.387.197 1.982-6.943-.398-13.29-3.77-17.455-8.927-.595 1.388-1.19 2.777-1.19 4.364 0 2.975 1.388 5.554 3.77 6.942-1.39 0-2.778-.398-3.77-.993 0 4.165 2.975 7.537 6.744 8.33-.596.2-1.39.2-2.183.2-.595 0-1.19 0-1.587-.2.992 3.373 4.165 5.555 7.934 5.753-2.975 2.182-6.545 3.77-10.512 3.77-.595 0-1.388 0-1.983-.2 3.768 2.38 8.13 3.77 12.89 3.77 15.472 0 24-12.892 24-24v-1.19c1.787-.793 3.175-2.38 4.365-3.967z"></path>
				<path id="Icon" fill="#32CBC8" d="M30.252 60.504C13.572 60.504 0 46.934 0 30.252S13.57 0 30.252 0s30.252 13.57 30.252 30.252-13.57 30.252-30.252 30.252zm0-59.504C14.122 1 1 14.122 1 30.252s13.122 29.252 29.252 29.252 29.252-13.122 29.252-29.252S46.382 1 30.252 1zm-5.95 48c-4.69 0-9.118-1.294-13.16-3.846L7.667 42.96l3.9 1.297c.52.173 1.274.173 1.826.173 3.083 0 6.15-.982 9.137-2.925-3.435-.616-6.127-2.854-7.038-5.955l-.324-1.102 1.027.514c.264.132.734.145 1.213.146-2.944-1.513-4.912-4.597-4.912-8.028v-.883l.757.454c.506.304 1.108.543 1.746.7-1.593-1.553-2.504-3.768-2.504-6.222 0-1.69.626-3.15 1.23-4.56l.327-.764.52.646c4.042 5.003 10 8.147 16.437 8.694-.068-.5-.068-1.02-.068-1.438 0-5.063 3.88-9.03 8.83-9.03 2.23 0 4.46.97 6.31 2.735 2.002-.422 3.574-1.017 4.93-1.863l1.126-.703-.382 1.27c-.442 1.475-1.165 2.747-2.102 3.728.955-.262 1.877-.607 2.832-.965l1.602-.6-1.022 1.366c-1.106 1.475-2.47 3.085-4.264 3.983v.874c0 12.043-9.164 24.5-24.5 24.5zm-10.665-3.572C16.97 47.136 20.55 48 24.302 48c14.71 0 23.5-11.948 23.5-23.5v-1.515l.297-.132c1.187-.528 2.193-1.44 3.06-2.432-1.073.364-2.19.674-3.396.808l-2.476.274 2.177-1.21c1.213-.672 2.203-1.796 2.867-3.228-1.234.6-2.636 1.046-4.312 1.38l-.262.054-.19-.19c-.98-.98-3.04-2.63-5.795-2.63-4.464 0-7.83 3.452-7.83 8.03 0 .55 0 1.307.173 1.824l.232.7-.735-.043c-6.69-.383-12.942-3.46-17.284-8.478-.46 1.11-.833 2.2-.833 3.415 0 2.79 1.316 5.225 3.52 6.51l1.598.933h-1.85c-1.094 0-2.244-.24-3.224-.656.36 3.412 2.9 6.29 6.304 7.006l1.81.38-1.754.584c-.894.296-2.08.277-3.148.205 1.15 2.634 3.877 4.398 7.182 4.572l1.4.073-1.13.83c-3.424 2.507-6.976 3.807-10.567 3.863zm39.028-26.084l.176.468-.175-.468z"></path>
			</svg>
